<svg width="28" height="28" viewBox="0 0 28 28" fill="none" xmlns="http://www.w3.org/2000/svg">
<g clip-path="url(#clip0_3491_1431)">
<path d="M14 17.5C15.933 17.5 17.5 15.933 17.5 14C17.5 12.067 15.933 10.5 14 10.5C12.067 10.5 10.5 12.067 10.5 14C10.5 15.933 12.067 17.5 14 17.5Z" stroke="#242D35" stroke-width="1.4" stroke-linecap="round" stroke-linejoin="round"/>
<path d="M22.6346 17.4993C22.4793 17.8512 22.433 18.2416 22.5016 18.62C22.5703 18.9985 22.7507 19.3477 23.0196 19.6227L23.0896 19.6927C23.3066 19.9094 23.4787 20.1667 23.5961 20.45C23.7135 20.7332 23.774 21.0369 23.774 21.3435C23.774 21.6502 23.7135 21.9538 23.5961 22.237C23.4787 22.5203 23.3066 22.7776 23.0896 22.9943C22.8729 23.2113 22.6156 23.3834 22.3323 23.5008C22.0491 23.6182 21.7454 23.6787 21.4388 23.6787C21.1322 23.6787 20.8285 23.6182 20.5453 23.5008C20.262 23.3834 20.0047 23.2113 19.788 22.9943L19.718 22.9243C19.443 22.6554 19.0938 22.475 18.7153 22.4063C18.3369 22.3377 17.9465 22.384 17.5946 22.5393C17.2496 22.6872 16.9553 22.9328 16.748 23.2458C16.5407 23.5588 16.4295 23.9256 16.428 24.301V24.4993C16.428 25.1182 16.1821 25.7117 15.7446 26.1493C15.307 26.5868 14.7135 26.8327 14.0946 26.8327C13.4758 26.8327 12.8823 26.5868 12.4447 26.1493C12.0071 25.7117 11.7613 25.1182 11.7613 24.4993V24.3943C11.7523 24.0082 11.6273 23.6337 11.4026 23.3195C11.1779 23.0053 10.8638 22.766 10.5013 22.6327C10.1494 22.4774 9.75908 22.4311 9.38062 22.4997C9.00215 22.5683 8.65293 22.7487 8.37797 23.0177L8.30797 23.0877C8.09126 23.3046 7.83392 23.4767 7.55066 23.5942C7.2674 23.7116 6.96377 23.772 6.65714 23.772C6.3505 23.772 6.04687 23.7116 5.76361 23.5942C5.48035 23.4767 5.22301 23.3046 5.0063 23.0877C4.78936 22.871 4.61725 22.6136 4.49983 22.3304C4.38241 22.0471 4.32197 21.7435 4.32197 21.4368C4.32197 21.1302 4.38241 20.8266 4.49983 20.5433C4.61725 20.2601 4.78936 20.0027 5.0063 19.786L5.0763 19.716C5.34526 19.4411 5.52569 19.0918 5.59431 18.7134C5.66293 18.3349 5.6166 17.9446 5.4613 17.5927C5.31341 17.2476 5.06785 16.9533 4.75484 16.746C4.44184 16.5388 4.07505 16.4275 3.69964 16.426H3.5013C2.88246 16.426 2.28897 16.1802 1.85139 15.7426C1.4138 15.305 1.16797 14.7115 1.16797 14.0927C1.16797 13.4738 1.4138 12.8804 1.85139 12.4428C2.28897 12.0052 2.88246 11.7593 3.5013 11.7593H3.6063C3.99246 11.7503 4.36697 11.6253 4.68115 11.4006C4.99533 11.1759 5.23464 10.8619 5.36797 10.4993C5.52327 10.1475 5.5696 9.75712 5.50097 9.37866C5.43235 9.0002 5.25193 8.65097 4.98297 8.37602L4.91297 8.30602C4.69602 8.08931 4.52392 7.83197 4.4065 7.54871C4.28907 7.26545 4.22863 6.96182 4.22863 6.65518C4.22863 6.34855 4.28907 6.04492 4.4065 5.76165C4.52392 5.47839 4.69602 5.22105 4.91297 5.00435C5.12967 4.7874 5.38701 4.6153 5.67027 4.49788C5.95354 4.38045 6.25717 4.32001 6.5638 4.32001C6.87044 4.32001 7.17407 4.38045 7.45733 4.49788C7.74059 4.6153 7.99793 4.7874 8.21464 5.00435L8.28464 5.07435C8.55959 5.34331 8.90882 5.52373 9.28728 5.59235C9.66574 5.66098 10.0561 5.61465 10.408 5.45935H10.5013C10.8464 5.31146 11.1407 5.0659 11.3479 4.75289C11.5552 4.43989 11.6665 4.0731 11.668 3.69768V3.49935C11.668 2.88051 11.9138 2.28702 12.3514 1.84943C12.789 1.41185 13.3825 1.16602 14.0013 1.16602C14.6201 1.16602 15.2136 1.41185 15.6512 1.84943C16.0888 2.28702 16.3346 2.88051 16.3346 3.49935V3.60435C16.3361 3.97977 16.4474 4.34655 16.6547 4.65956C16.8619 4.97256 17.1562 5.21813 17.5013 5.36602C17.8532 5.52132 18.2435 5.56764 18.622 5.49902C19.0004 5.4304 19.3497 5.24998 19.6246 4.98102L19.6946 4.91102C19.9113 4.69407 20.1687 4.52197 20.4519 4.40454C20.7352 4.28712 21.0388 4.22668 21.3455 4.22668C21.6521 4.22668 21.9557 4.28712 22.239 4.40454C22.5223 4.52197 22.7796 4.69407 22.9963 4.91102C23.2132 5.12772 23.3854 5.38506 23.5028 5.66832C23.6202 5.95158 23.6806 6.25521 23.6806 6.56185C23.6806 6.86848 23.6202 7.17211 23.5028 7.45538C23.3854 7.73864 23.2132 7.99598 22.9963 8.21268L22.9263 8.28268C22.6573 8.55764 22.4769 8.90687 22.4083 9.28533C22.3397 9.66379 22.386 10.0541 22.5413 10.406V10.4993C22.6892 10.8444 22.9348 11.1387 23.2478 11.346C23.5608 11.5533 23.9276 11.6645 24.303 11.666H24.5013C25.1201 11.666 25.7136 11.9118 26.1512 12.3494C26.5888 12.787 26.8346 13.3805 26.8346 13.9993C26.8346 14.6182 26.5888 15.2117 26.1512 15.6493C25.7136 16.0868 25.1201 16.3327 24.5013 16.3327H24.3963C24.0209 16.3342 23.6541 16.4454 23.3411 16.6527C23.0281 16.86 22.7825 17.1543 22.6346 17.4993V17.4993Z" stroke="#242D35" stroke-width="1.4" stroke-linecap="round" stroke-linejoin="round"/>
</g>
<defs>
<clipPath id="clip0_3491_1431">
<rect width="28" height="28" fill="white"/>
</clipPath>
</defs>
</svg>
