<svg width="72" height="22" viewBox="0 0 72 22" fill="none" xmlns="http://www.w3.org/2000/svg">
<path d="M10.976 21.42C8.13867 21.42 5.74933 20.412 3.808 18.396C1.86667 16.3613 0.896 13.8693 0.896 10.92C0.896 7.98933 1.86667 5.516 3.808 3.5C5.74933 1.484 8.13867 0.475999 10.976 0.475999C13.6267 0.475999 15.8853 1.27867 17.752 2.884C19.6373 4.48933 20.7573 6.58 21.112 9.156H16.604C16.3613 7.71867 15.7267 6.552 14.7 5.656C13.6733 4.74133 12.4507 4.284 11.032 4.284C9.31467 4.284 7.924 4.9 6.86 6.132C5.796 7.364 5.264 8.96 5.264 10.92C5.264 12.8987 5.796 14.5133 6.86 15.764C7.924 16.996 9.31467 17.612 11.032 17.612C12.4507 17.612 13.664 17.164 14.672 16.268C15.6987 15.3533 16.3427 14.168 16.604 12.712H21.112C20.7573 15.3067 19.6373 17.4067 17.752 19.012C15.8853 20.6173 13.6267 21.42 10.976 21.42ZM28.3397 21H24.0837V0.895998H28.3397V21ZM45.8909 21L44.3789 16.688H36.5669L35.0269 21H30.7429L38.3029 0.895998H42.9509L50.4549 21H45.8909ZM40.5149 5.544L37.7709 13.3H43.2029L40.5149 5.544ZM60.8283 21.42C57.9163 21.42 55.4709 20.4213 53.4923 18.424C51.5323 16.4267 50.5523 13.9253 50.5523 10.92C50.5523 7.93333 51.5323 5.45067 53.4923 3.472C55.4709 1.47467 57.9163 0.475999 60.8283 0.475999C63.7589 0.475999 66.2136 1.47467 68.1923 3.472C70.1709 5.45067 71.1603 7.93333 71.1603 10.92C71.1603 13.9253 70.1709 16.4267 68.1923 18.424C66.2136 20.4213 63.7589 21.42 60.8283 21.42ZM56.5163 15.708C57.5989 16.9773 59.0363 17.612 60.8283 17.612C62.6203 17.612 64.0576 16.9773 65.1403 15.708C66.2229 14.42 66.7643 12.824 66.7643 10.92C66.7643 9.016 66.2229 7.43867 65.1403 6.188C64.0763 4.91867 62.6389 4.284 60.8283 4.284C59.0363 4.284 57.5989 4.91867 56.5163 6.188C55.4523 7.43867 54.9203 9.016 54.9203 10.92C54.9203 12.824 55.4523 14.42 56.5163 15.708Z" fill="black"/>
</svg>
