<svg width="48" height="48" viewBox="0 0 48 48" fill="none" xmlns="http://www.w3.org/2000/svg">
<path opacity="0.4" d="M29.526 13.4853C30.736 13.4853 31.898 13.9619 32.744 14.8111C33.596 15.6681 34.068 16.8194 34.066 18.0177V20.5084C34.056 20.8006 33.818 21.0379 33.52 21.0457H14.48C14.184 21.0359 13.946 20.7986 13.9399 20.5084V18.0177C13.918 15.5367 15.95 13.5108 18.478 13.4853H29.526ZM34.3882 6.00059C38.7822 6.00059 42.3542 9.50329 42.3542 13.8121V17.5246C42.3542 18.3483 41.6742 19.019 40.8322 19.019C39.9922 19.019 39.3102 18.3483 39.3102 17.5246V13.8121C39.3102 11.1507 37.1022 8.98554 34.3882 8.98554H31.2022C30.3622 8.98554 29.6802 8.31873 29.6802 7.49502C29.6802 6.66936 30.3622 6.00059 31.2022 6.00059H34.3882ZM16.8564 6C17.6964 6 18.3784 6.66877 18.3784 7.49444C18.3784 8.31814 17.6984 8.98691 16.8564 8.98691L13.5984 8.98887C10.8944 8.99279 8.69444 11.1521 8.69444 13.8056V17.524C8.69444 18.3477 8.01044 19.0185 7.17044 19.0185C6.33044 19.0185 5.64844 18.3477 5.64844 17.524V13.8056C5.64844 9.50663 9.21444 6.00588 13.5964 6.00196L16.8564 6Z" fill="#518D70"/>
<path d="M44.478 24.082H3.524C2.684 24.082 2 24.7508 2 25.5765C2 26.4002 2.684 27.067 3.524 27.067H5.646V34.194C5.646 38.4929 9.214 41.9937 13.596 41.9976L16.854 41.9996C17.696 41.9996 18.376 41.3308 18.378 40.5051C18.378 39.6814 17.696 39.0127 16.856 39.0127L13.6 39.0107C10.894 39.0068 8.692 36.8475 8.692 34.194V27.067H13.938V29.0498C13.918 31.5307 15.948 33.5586 18.476 33.5821H29.524C32.054 33.5586 34.084 31.5307 34.064 29.0498V27.067H39.31V34.1861C39.31 36.8494 37.102 39.0127 34.388 39.0127H31.202C30.36 39.0127 29.678 39.6814 29.678 40.5051C29.678 41.3308 30.36 41.9996 31.202 41.9996H34.388C38.78 41.9996 42.354 38.4969 42.354 34.1861V27.067H44.478C45.318 27.067 46 26.4002 46 25.5765C46 24.7508 45.318 24.082 44.478 24.082Z" fill="#518D70"/>
</svg>
