<svg width="48" height="48" viewBox="0 0 48 48" fill="none" xmlns="http://www.w3.org/2000/svg">
<path opacity="0.4" d="M24 7.76367H23.9805C15.7268 7.76367 8.29268 13.6117 4.11707 23.4174C3.96098 23.7915 3.96098 24.2247 4.11707 24.5791C5.46341 27.7472 7.16098 30.5058 9.1122 32.7899L16.3317 25.5045C16.2537 25.0319 16.1951 24.52 16.1951 24.0081C16.1951 19.6565 19.6878 16.132 24 16.132C24.5073 16.132 25.0146 16.1911 25.4829 16.2698L32 9.69134C29.5024 8.43314 26.7902 7.76367 24 7.76367ZM43.8829 23.4174C42.0878 19.2037 39.6878 15.6988 36.8585 13.0997L30.439 19.5778C31.278 20.8379 31.7854 22.3738 31.7854 24.0081C31.7854 28.3399 28.2927 31.8644 24 31.8644C22.3805 31.8644 20.8585 31.3505 19.6098 30.5058L13.4244 36.7476C16.6049 39.012 20.2146 40.2524 23.9805 40.2524H24C32.2732 40.2524 39.7073 34.3848 43.8829 24.5791C44.039 24.2247 44.039 23.7915 43.8829 23.4174Z" fill="#518D70"/>
<path d="M40.4114 7.42826C40.9967 7.99928 40.9967 8.9444 40.4114 9.51542L36.8602 13.099L30.4407 19.5771L27.6124 22.43L28.314 21.7241C28.6652 22.3936 28.8604 23.1812 28.8604 24.0082C28.8604 26.7057 26.675 28.911 24.0018 28.911C23.1831 28.911 22.4033 28.7145 21.7403 28.3607L9.64065 40.5688C9.34797 40.8622 8.97724 41 8.60651 41C8.23577 41 7.84553 40.8622 7.57236 40.5688C7.08455 40.0765 7.00651 39.287 7.39675 38.7159L7.45529 38.6372L28.3919 17.5116L34.5772 11.2698L36.3138 9.51542C36.3528 9.47604 36.3919 9.43666 36.4114 9.39728C36.4504 9.3579 36.4894 9.31852 36.5089 9.27914L38.3431 7.42826C38.9285 6.85725 39.8455 6.85725 40.4114 7.42826Z" fill="#518D70"/>
</svg>
