<svg width="48" height="48" viewBox="0 0 48 48" fill="none" xmlns="http://www.w3.org/2000/svg">
<path opacity="0.4" d="M23.9985 43.9973C22.4605 43.9973 20.9245 43.4133 19.7505 42.2473L18.2905 40.7873C17.7245 40.2233 16.9665 39.9113 16.1625 39.9093H14.1085C10.7885 39.9093 8.08652 37.2073 8.08652 33.8873V31.8313C8.08452 31.0293 7.77252 30.2713 7.20652 29.7013L5.77052 28.2673C3.41852 25.9293 3.40852 22.1073 5.74852 19.7533L7.20852 18.2913C7.77252 17.7253 8.08452 16.9673 8.08652 16.1633V14.1113C8.08652 10.7893 10.7885 8.08727 14.1085 8.08727H16.1645C16.9665 8.08727 17.7225 7.77527 18.2925 7.20527L19.7305 5.77127C22.0685 3.41927 25.8885 3.40727 28.2445 5.74927L29.7045 7.20927C30.2725 7.77527 31.0285 8.08727 31.8305 8.08727H33.8865C37.2065 8.08727 39.9085 10.7893 39.9085 14.1113V16.1653C39.9105 16.9673 40.2225 17.7253 40.7885 18.2953L42.2245 19.7313C43.3625 20.8633 43.9925 22.3713 43.9985 23.9813C44.0025 25.5813 43.3865 27.0873 42.2645 28.2253C42.2445 28.2453 42.2265 28.2673 42.2065 28.2853L40.7865 29.7053C40.2225 30.2713 39.9105 31.0293 39.9085 31.8333V33.8873C39.9085 37.2073 37.2065 39.9093 33.8865 39.9093H31.8305C31.0285 39.9113 30.2705 40.2233 29.7025 40.7893L28.2645 42.2253C27.0925 43.4053 25.5445 43.9973 23.9985 43.9973Z" fill="#518D70"/>
<path d="M27.8855 27.9171C28.3975 27.4051 29.1655 27.2571 29.8135 27.5291C30.0035 27.5931 30.2155 27.7291 30.3915 27.9031C30.7115 28.2231 30.8855 28.6611 30.8855 29.1411C30.8855 29.6191 30.7115 30.0591 30.3935 30.3771C30.0355 30.7111 29.5995 30.8911 29.1555 30.8911C28.6875 30.8911 28.2675 30.7211 27.9055 30.3851C27.7475 30.2271 27.6275 30.0451 27.5275 29.8211C27.4195 29.5771 27.4055 29.3171 27.4055 29.1411C27.4055 28.9651 27.4195 28.7031 27.5275 28.4591C27.6295 28.2331 27.7795 28.0411 27.8855 27.9171ZM27.9089 17.6209C28.5909 16.9409 29.7009 16.9409 30.3829 17.6209C31.0649 18.3049 31.0649 19.4129 30.3829 20.0969L20.1029 30.3769C19.7729 30.7069 19.3349 30.8889 18.8669 30.8889C18.3989 30.8889 17.9609 30.7069 17.6289 30.3769C16.9469 29.6929 16.9469 28.5829 17.6289 27.9009L27.9089 17.6209ZM18.2155 17.2431C18.8195 16.9671 19.6215 17.1291 20.0975 17.6291C20.2675 17.7991 20.3975 17.9851 20.4835 18.1791C20.5775 18.3871 20.6255 18.6231 20.6255 18.8611C20.6255 19.3371 20.4355 19.7791 20.0875 20.1031C19.7575 20.4331 19.3295 20.6111 18.8555 20.6111C18.4115 20.6111 17.9755 20.4291 17.6255 20.1011C17.2935 19.7711 17.1055 19.3191 17.1055 18.8611C17.1055 18.4251 17.2895 17.9771 17.6135 17.6311C17.7915 17.4511 18.0035 17.3151 18.2155 17.2431Z" fill="#518D70"/>
</svg>
