<svg width="101" height="31" viewBox="0 0 101 31" fill="none" xmlns="http://www.w3.org/2000/svg">
<path d="M14.68 30.6C10.6267 30.6 7.21333 29.16 4.44 26.28C1.66667 23.3733 0.28 19.8133 0.28 15.6C0.28 11.4133 1.66667 7.88 4.44 5C7.21333 2.12 10.6267 0.679998 14.68 0.679998C18.4667 0.679998 21.6933 1.82667 24.36 4.12C27.0533 6.41333 28.6533 9.4 29.16 13.08H22.72C22.3733 11.0267 21.4667 9.36 20 8.08C18.5333 6.77333 16.7867 6.12 14.76 6.12C12.3067 6.12 10.32 7 8.8 8.76C7.28 10.52 6.52 12.8 6.52 15.6C6.52 18.4267 7.28 20.7333 8.8 22.52C10.32 24.28 12.3067 25.16 14.76 25.16C16.7867 25.16 18.52 24.52 19.96 23.24C21.4267 21.9333 22.3467 20.24 22.72 18.16H29.16C28.6533 21.8667 27.0533 24.8667 24.36 27.16C21.6933 29.4533 18.4667 30.6 14.68 30.6ZM39.4853 30H33.4053V1.28H39.4853V30ZM64.5584 30L62.3984 23.84H51.2384L49.0384 30H42.9184L53.7184 1.28H60.3584L71.0784 30H64.5584ZM56.8784 7.92L52.9584 19H60.7184L56.8784 7.92ZM85.8975 30.6C81.7375 30.6 78.2442 29.1733 75.4175 26.32C72.6175 23.4667 71.2175 19.8933 71.2175 15.6C71.2175 11.3333 72.6175 7.78666 75.4175 4.96C78.2442 2.10666 81.7375 0.679998 85.8975 0.679998C90.0842 0.679998 93.5908 2.10666 96.4175 4.96C99.2442 7.78666 100.658 11.3333 100.658 15.6C100.658 19.8933 99.2442 23.4667 96.4175 26.32C93.5908 29.1733 90.0842 30.6 85.8975 30.6ZM79.7375 22.44C81.2842 24.2533 83.3375 25.16 85.8975 25.16C88.4575 25.16 90.5108 24.2533 92.0575 22.44C93.6042 20.6 94.3775 18.32 94.3775 15.6C94.3775 12.88 93.6042 10.6267 92.0575 8.84C90.5375 7.02667 88.4842 6.12 85.8975 6.12C83.3375 6.12 81.2842 7.02667 79.7375 8.84C78.2175 10.6267 77.4575 12.88 77.4575 15.6C77.4575 18.32 78.2175 20.6 79.7375 22.44Z" fill="white"/>
</svg>
